<mxfile host="app.diagrams.net" agent="Mozilla/5.0 (Windows NT 10.0; Win64; x64) AppleWebKit/537.36 (KHTML, like Gecko) Chrome/136.0.0.0 Safari/537.36 Edg/136.0.0.0" version="27.0.6">
  <diagram name="Page-1" id="2YBvvXClWsGukQMizWep">
    <mxGraphModel dx="994" dy="570" grid="1" gridSize="10" guides="1" tooltips="1" connect="1" arrows="1" fold="1" page="1" pageScale="1" pageWidth="850" pageHeight="1100" math="0" shadow="0">
      <root>
        <mxCell id="0" />
        <mxCell id="1" parent="0" />
        <mxCell id="aM9ryv3xv72pqoxQDRHE-1" value=":Menu" style="shape=umlLifeline;perimeter=lifelinePerimeter;whiteSpace=wrap;html=1;container=0;dropTarget=0;collapsible=0;recursiveResize=0;outlineConnect=0;portConstraint=eastwest;newEdgeStyle={&quot;edgeStyle&quot;:&quot;elbowEdgeStyle&quot;,&quot;elbow&quot;:&quot;vertical&quot;,&quot;curved&quot;:0,&quot;rounded&quot;:0};" parent="1" vertex="1">
          <mxGeometry x="220" y="190" width="100" height="300" as="geometry" />
        </mxCell>
        <mxCell id="aM9ryv3xv72pqoxQDRHE-2" value="" style="html=1;points=[];perimeter=orthogonalPerimeter;outlineConnect=0;targetShapes=umlLifeline;portConstraint=eastwest;newEdgeStyle={&quot;edgeStyle&quot;:&quot;elbowEdgeStyle&quot;,&quot;elbow&quot;:&quot;vertical&quot;,&quot;curved&quot;:0,&quot;rounded&quot;:0};" parent="aM9ryv3xv72pqoxQDRHE-1" vertex="1">
          <mxGeometry x="45" y="70" width="10" height="190" as="geometry" />
        </mxCell>
        <mxCell id="aM9ryv3xv72pqoxQDRHE-5" value=":Grupo" style="shape=umlLifeline;perimeter=lifelinePerimeter;whiteSpace=wrap;html=1;container=0;dropTarget=0;collapsible=0;recursiveResize=0;outlineConnect=0;portConstraint=eastwest;newEdgeStyle={&quot;edgeStyle&quot;:&quot;elbowEdgeStyle&quot;,&quot;elbow&quot;:&quot;vertical&quot;,&quot;curved&quot;:0,&quot;rounded&quot;:0};" parent="1" vertex="1">
          <mxGeometry x="460" y="190" width="100" height="300" as="geometry" />
        </mxCell>
        <mxCell id="aM9ryv3xv72pqoxQDRHE-6" value="" style="html=1;points=[];perimeter=orthogonalPerimeter;outlineConnect=0;targetShapes=umlLifeline;portConstraint=eastwest;newEdgeStyle={&quot;edgeStyle&quot;:&quot;elbowEdgeStyle&quot;,&quot;elbow&quot;:&quot;vertical&quot;,&quot;curved&quot;:0,&quot;rounded&quot;:0};" parent="aM9ryv3xv72pqoxQDRHE-5" vertex="1">
          <mxGeometry x="45" y="80" width="10" height="170" as="geometry" />
        </mxCell>
        <mxCell id="MyFdYpiXN4jTcln6qrZV-8" value=":GrupoController" style="shape=umlLifeline;perimeter=lifelinePerimeter;whiteSpace=wrap;html=1;container=0;dropTarget=0;collapsible=0;recursiveResize=0;outlineConnect=0;portConstraint=eastwest;newEdgeStyle={&quot;edgeStyle&quot;:&quot;elbowEdgeStyle&quot;,&quot;elbow&quot;:&quot;vertical&quot;,&quot;curved&quot;:0,&quot;rounded&quot;:0};" vertex="1" parent="1">
          <mxGeometry x="680" y="190" width="100" height="300" as="geometry" />
        </mxCell>
        <mxCell id="MyFdYpiXN4jTcln6qrZV-9" value="" style="html=1;points=[];perimeter=orthogonalPerimeter;outlineConnect=0;targetShapes=umlLifeline;portConstraint=eastwest;newEdgeStyle={&quot;edgeStyle&quot;:&quot;elbowEdgeStyle&quot;,&quot;elbow&quot;:&quot;vertical&quot;,&quot;curved&quot;:0,&quot;rounded&quot;:0};" vertex="1" parent="MyFdYpiXN4jTcln6qrZV-8">
          <mxGeometry x="45" y="70" width="10" height="190" as="geometry" />
        </mxCell>
        <mxCell id="MyFdYpiXN4jTcln6qrZV-19" value="" style="endArrow=classic;html=1;rounded=0;targetPerimeterSpacing=0;endSize=5;jumpStyle=none;jumpSize=5;strokeColor=default;align=center;" edge="1" parent="1" source="aM9ryv3xv72pqoxQDRHE-2" target="aM9ryv3xv72pqoxQDRHE-6">
          <mxGeometry width="50" height="50" relative="1" as="geometry">
            <mxPoint x="295" y="280" as="sourcePoint" />
            <mxPoint x="500" y="280" as="targetPoint" />
            <Array as="points">
              <mxPoint x="460" y="290" />
            </Array>
          </mxGeometry>
        </mxCell>
        <mxCell id="MyFdYpiXN4jTcln6qrZV-21" value="gerenciarGrupoPersonagens" style="edgeLabel;html=1;align=center;verticalAlign=middle;resizable=0;points=[];" vertex="1" connectable="0" parent="MyFdYpiXN4jTcln6qrZV-19">
          <mxGeometry x="-0.0036" relative="1" as="geometry">
            <mxPoint as="offset" />
          </mxGeometry>
        </mxCell>
        <mxCell id="MyFdYpiXN4jTcln6qrZV-22" value="D" style="endArrow=classic;html=1;rounded=0;targetPerimeterSpacing=0;endSize=5;jumpStyle=none;jumpSize=5;strokeColor=default;align=center;" edge="1" parent="1">
          <mxGeometry width="50" height="50" relative="1" as="geometry">
            <mxPoint x="515" y="330" as="sourcePoint" />
            <mxPoint x="725" y="330" as="targetPoint" />
            <Array as="points">
              <mxPoint x="680" y="330" />
            </Array>
          </mxGeometry>
        </mxCell>
        <mxCell id="MyFdYpiXN4jTcln6qrZV-23" value="editarCombatente" style="edgeLabel;html=1;align=center;verticalAlign=middle;resizable=0;points=[];" vertex="1" connectable="0" parent="MyFdYpiXN4jTcln6qrZV-22">
          <mxGeometry x="-0.0036" relative="1" as="geometry">
            <mxPoint as="offset" />
          </mxGeometry>
        </mxCell>
        <mxCell id="MyFdYpiXN4jTcln6qrZV-26" value="" style="endArrow=none;html=1;rounded=0;targetPerimeterSpacing=0;endSize=5;jumpStyle=none;jumpSize=5;strokeColor=default;align=center;startArrow=classic;startFill=1;" edge="1" parent="1">
          <mxGeometry width="50" height="50" relative="1" as="geometry">
            <mxPoint x="515" y="359.16999999999996" as="sourcePoint" />
            <mxPoint x="725" y="359.16999999999996" as="targetPoint" />
          </mxGeometry>
        </mxCell>
        <mxCell id="MyFdYpiXN4jTcln6qrZV-27" value="excluirCombatente" style="edgeLabel;html=1;align=center;verticalAlign=middle;resizable=0;points=[];" vertex="1" connectable="0" parent="MyFdYpiXN4jTcln6qrZV-26">
          <mxGeometry x="-0.0036" relative="1" as="geometry">
            <mxPoint as="offset" />
          </mxGeometry>
        </mxCell>
        <mxCell id="MyFdYpiXN4jTcln6qrZV-35" value="" style="endArrow=classic;html=1;rounded=0;" edge="1" parent="1" source="MyFdYpiXN4jTcln6qrZV-9">
          <mxGeometry width="50" height="50" relative="1" as="geometry">
            <mxPoint x="515" y="410" as="sourcePoint" />
            <mxPoint x="930" y="410" as="targetPoint" />
          </mxGeometry>
        </mxCell>
        <mxCell id="MyFdYpiXN4jTcln6qrZV-36" value="salvarGrupo" style="text;html=1;align=center;verticalAlign=middle;resizable=0;points=[];autosize=1;strokeColor=none;fillColor=none;" vertex="1" parent="1">
          <mxGeometry x="780" y="390" width="90" height="30" as="geometry" />
        </mxCell>
        <mxCell id="MyFdYpiXN4jTcln6qrZV-38" value="" style="endArrow=classic;html=1;rounded=0;" edge="1" parent="1" source="MyFdYpiXN4jTcln6qrZV-9">
          <mxGeometry width="50" height="50" relative="1" as="geometry">
            <mxPoint x="740" y="380" as="sourcePoint" />
            <mxPoint x="930" y="380" as="targetPoint" />
            <Array as="points">
              <mxPoint x="790" y="380" />
            </Array>
          </mxGeometry>
        </mxCell>
        <mxCell id="MyFdYpiXN4jTcln6qrZV-39" value="deletarGrupo" style="text;html=1;align=center;verticalAlign=middle;resizable=0;points=[];autosize=1;strokeColor=none;fillColor=none;" vertex="1" parent="1">
          <mxGeometry x="780" y="360" width="90" height="30" as="geometry" />
        </mxCell>
        <mxCell id="MyFdYpiXN4jTcln6qrZV-41" value="D" style="endArrow=classic;html=1;rounded=0;targetPerimeterSpacing=0;endSize=5;jumpStyle=none;jumpSize=5;strokeColor=default;align=center;" edge="1" parent="1" source="aM9ryv3xv72pqoxQDRHE-6" target="MyFdYpiXN4jTcln6qrZV-9">
          <mxGeometry width="50" height="50" relative="1" as="geometry">
            <mxPoint x="520" y="300" as="sourcePoint" />
            <mxPoint x="720" y="300" as="targetPoint" />
            <Array as="points">
              <mxPoint x="685" y="300" />
            </Array>
          </mxGeometry>
        </mxCell>
        <mxCell id="MyFdYpiXN4jTcln6qrZV-42" value="adicionarCombatente" style="edgeLabel;html=1;align=center;verticalAlign=middle;resizable=0;points=[];" vertex="1" connectable="0" parent="MyFdYpiXN4jTcln6qrZV-41">
          <mxGeometry x="-0.0036" relative="1" as="geometry">
            <mxPoint as="offset" />
          </mxGeometry>
        </mxCell>
        <mxCell id="MyFdYpiXN4jTcln6qrZV-43" value="UsuÃ¡rio" style="shape=umlActor;verticalLabelPosition=bottom;verticalAlign=top;html=1;outlineConnect=0;" vertex="1" parent="1">
          <mxGeometry x="40" y="190" width="30" height="60" as="geometry" />
        </mxCell>
        <mxCell id="MyFdYpiXN4jTcln6qrZV-45" value="" style="endArrow=none;dashed=1;html=1;dashPattern=1 3;strokeWidth=2;rounded=0;" edge="1" parent="1" target="MyFdYpiXN4jTcln6qrZV-43">
          <mxGeometry width="50" height="50" relative="1" as="geometry">
            <mxPoint x="55" y="500" as="sourcePoint" />
            <mxPoint x="240" y="250" as="targetPoint" />
          </mxGeometry>
        </mxCell>
        <mxCell id="MyFdYpiXN4jTcln6qrZV-47" value="" style="endArrow=classic;html=1;rounded=0;" edge="1" parent="1" target="aM9ryv3xv72pqoxQDRHE-2">
          <mxGeometry width="50" height="50" relative="1" as="geometry">
            <mxPoint x="60" y="280" as="sourcePoint" />
            <mxPoint x="269" y="280" as="targetPoint" />
          </mxGeometry>
        </mxCell>
        <mxCell id="MyFdYpiXN4jTcln6qrZV-49" value="&lt;font style=&quot;font-size: 7px;&quot;&gt;Iniciar &quot;Gerenciar Grupo de Personagem&quot;&lt;/font&gt;" style="text;html=1;align=center;verticalAlign=middle;resizable=0;points=[];autosize=1;strokeColor=none;fillColor=none;" vertex="1" parent="1">
          <mxGeometry x="90" y="270" width="150" height="30" as="geometry" />
        </mxCell>
        <mxCell id="MyFdYpiXN4jTcln6qrZV-51" style="edgeStyle=orthogonalEdgeStyle;rounded=0;orthogonalLoop=1;jettySize=auto;html=1;endArrow=none;startFill=0;startArrow=none;dashed=1;" edge="1" parent="1" source="MyFdYpiXN4jTcln6qrZV-50">
          <mxGeometry relative="1" as="geometry">
            <mxPoint x="930" y="491.37144252232144" as="targetPoint" />
          </mxGeometry>
        </mxCell>
        <mxCell id="MyFdYpiXN4jTcln6qrZV-50" value="" style="shape=datastore;whiteSpace=wrap;html=1;" vertex="1" parent="1">
          <mxGeometry x="900" y="180" width="60" height="60" as="geometry" />
        </mxCell>
        <mxCell id="MyFdYpiXN4jTcln6qrZV-52" value="Banco de Dados" style="text;html=1;align=center;verticalAlign=middle;resizable=0;points=[];autosize=1;strokeColor=none;fillColor=none;" vertex="1" parent="1">
          <mxGeometry x="875" y="148" width="110" height="30" as="geometry" />
        </mxCell>
      </root>
    </mxGraphModel>
  </diagram>
</mxfile>
